# xmcd CD database file
#
# Track frame offsets:
#	150
#	24627
#	44874
#	66567
#	99993
#	126662
#	150420
#	182343
#	203430
#
# Disc length: 2905 seconds
#
# Revision: 0
# Processed by: cddbd v1.5.2PL0 Copyright (c) Steve Scherf et al.
# Submitted via: CDex 1.75
#
DISCID=7a0b5709
DTITLE=Primo Trio Jazz - Clepsydra
DYEAR=2013
DGENRE=Jazz
TTITLE0=Blue Bossa
TTITLE1=eautiful Love
TTITLE2=Someday My Prince Will Come
TTITLE3=Autumn Leaves
TTITLE4=Misty
TTITLE5=Estate
TTITLE6=Equinox
TTITLE7=Sunny
TTITLE8=Tenor Madness
EXTD=YEAR: 2013
EXTT0=
EXTT1=
EXTT2=
EXTT3=
EXTT4=
EXTT5=
EXTT6=
EXTT7=
EXTT8=
PLAYORDER=
